<svg width="181" height="67" viewBox="0 0 181 67" fill="none" xmlns="http://www.w3.org/2000/svg">
<g clip-path="url(#clip0_86_193)">
<path fill-rule="evenodd" clip-rule="evenodd" d="M92.8454 66.9997C87.5706 66.9997 82.86 63.8261 81.9593 58.8222L76.0882 12.6376C76.0882 12.6376 76.0896 9.57266 73.1387 9.57266C70.1895 9.57266 70.1895 12.5305 70.1895 12.5305L66.6262 64.2726C66.52 65.8079 65.2458 66.9997 63.7092 66.9997H59.9534C58.2579 66.9997 56.9182 65.5598 57.0377 63.8644L60.7261 11.3914C61.184 5.95431 65.7997 0.00784302 73.1693 0.00784302C81.4432 0.00784302 85.3299 7.32384 85.5412 11.2475L90.988 55.7132C91.0564 56.4735 91.6617 57.3675 92.8454 57.3675C94.0277 57.3675 94.6343 56.4735 94.7014 55.7132L100.15 11.2475C100.36 7.32384 104.248 0.00784302 112.521 0.00784302C119.891 0.00784302 124.507 5.95431 124.965 11.3914L128.653 63.8644C128.773 65.5598 127.431 66.9997 125.737 66.9997H121.98C120.445 66.9997 119.171 65.8079 119.065 64.2726L115.501 12.5305C115.501 12.5305 115.501 9.57266 112.552 9.57266C109.601 9.57266 109.603 12.6376 109.603 12.6376L103.732 58.8222C102.831 63.8261 98.1202 66.9997 92.8454 66.9997Z" fill="white"/>
<path fill-rule="evenodd" clip-rule="evenodd" d="M157.455 9.70766C153.752 9.70766 149.916 10.5576 146.06 11.1521C144.226 11.4368 142.574 9.98948 142.574 8.10469V4.41734C142.574 3.01256 143.509 1.77512 144.85 1.43751C147.653 0.72998 150.7 -0.0450713 158.486 0.0121767C176.32 0.141352 180.127 11.6218 180.502 16.0607C180.87 20.4424 180.553 26.7103 173.126 32.695L148.604 51.5986C147.815 52.2062 147.353 53.1559 147.357 54.1615C147.366 55.923 148.774 57.1693 150.509 57.1693H177.328C179.134 57.1693 180.599 58.8338 180.599 60.6688V63.6792C180.599 65.5126 179.134 66.9998 177.328 66.9998H150.23C143.412 66.9998 137.887 61.3894 137.887 54.4683V54.132C137.887 50.116 139.734 46.3303 142.88 43.8965L167.356 24.7815C168.292 24.0505 169.131 23.1844 169.739 22.1569C170.061 21.6079 170.366 20.962 170.572 20.2383C171.839 16.5451 169.63 11.9183 166.077 10.8115C166.077 10.8115 163.151 9.70766 157.455 9.70766Z" fill="white"/>
<path fill-rule="evenodd" clip-rule="evenodd" d="M28.5152 9.50612C32.2183 9.50612 37.8239 10.469 41.6803 11.0606C43.5143 11.341 45.1646 9.90539 45.1646 8.03821V4.38022C45.1646 2.98718 44.2316 1.76001 42.8887 1.42533C40.2922 0.776519 35.4973 0.0557802 28.6174 0C10.5232 0 0 9.36665 0 25.4622V47.7932V47.8975C0 58.4473 8.49523 66.9992 18.9732 66.9992L34.9636 66.9611C41.8741 66.9611 47.4869 61.3377 47.5205 54.3783L47.5309 52.0193L47.5322 33.4636C47.5322 30.839 45.4182 28.7122 42.8116 28.7135H42.2401H38.0209H35.0759C33.4429 28.7135 32.1206 30.0463 32.1206 31.6889V35.3103C32.1206 36.9529 33.4429 38.2857 35.0759 38.2857H38.0922V51.9196C38.0922 52.0957 38.0909 52.338 38.088 52.6226C38.0632 55.2252 35.9783 57.3346 33.3934 57.3713C31.3452 57.4021 20.8496 57.43 20.8496 57.43H19.0097C12.7348 57.3582 9.52308 52.216 9.52308 45.8969V44.9192V23.3425C9.52308 15.6052 15.2847 9.50612 28.5152 9.50612Z" fill="white"/>
</g>
<defs>
<clipPath id="clip0_86_193">
<rect width="181" height="67" fill="white"/>
</clipPath>
</defs>
</svg>
